<?xml version="1.0"?>
<svg xmlns="http://www.w3.org/2000/svg" xmlns:xlink="http://www.w3.org/1999/xlink" version="1.1" id="Capa_1" x="0px" y="0px" viewBox="0 0 512 512" style="enable-background:new 0 0 512 512;" xml:space="preserve" width="512px" height="512px" class=""><g transform="matrix(-1 0 0 1 512 0)"><g>
	<g>
		<path d="M252.89,0C127.657,0,21.455,92.815,0.11,212h216v-75c0-5.771,3.311-11.016,8.496-13.521    c5.171-2.52,11.367-1.816,15.878,1.802l150,120c3.56,2.856,5.626,7.163,5.626,11.719c0,4.556-2.065,8.862-5.626,11.719l-150,120    c-2.709,2.168-6.035,3.281-9.374,3.281c-2.212,0-4.424-0.483-6.504-1.479c-5.186-2.505-8.496-7.749-8.496-13.521v-75h-216    c21.345,119.185,127.547,210,252.78,210c140.61,0,259-114.39,259-255S393.5,0,252.89,0z" data-original="#000000" class="active-path" data-old_color="#712A2A" fill="#ffffff"/>
	</g>
</g></g> </svg>
