<?xml version="1.0" encoding="iso-8859-1"?>
<!-- Generator: Adobe Illustrator 19.0.0, SVG Export Plug-In . SVG Version: 6.00 Build 0)  -->
<svg version="1.1" id="Capa_1" xmlns="http://www.w3.org/2000/svg" xmlns:xlink="http://www.w3.org/1999/xlink" x="0px" y="0px"
	 viewBox="0 0 512 512" style="enable-background:new 0 0 512 512;" xml:space="preserve">
<g>
	<g>
		<path d="M430.143,153.785c-1.918-17.506-16.646-30.708-34.257-30.708h-26.656v73.846c0,8.157-6.613,14.769-14.769,14.769
			s-14.769-6.613-14.769-14.769v-73.846H172.308v73.846c0,8.157-6.613,14.769-14.769,14.769s-14.769-6.613-14.769-14.769v-73.846
			h-26.656c-17.611,0-32.339,13.202-34.257,30.708L55.01,398.769h401.982L430.143,153.785z"/>
	</g>
</g>
<g>
	<g>
		<path d="M465.211,473.785l-4.983-45.477H51.772l-4.984,45.477c-1.064,9.722,2.069,19.475,8.596,26.757
			C61.911,507.824,71.266,512,81.046,512h349.91c9.78,0,19.133-4.177,25.661-11.459
			C463.145,493.259,466.277,483.507,465.211,473.785z"/>
	</g>
</g>
<g>
	<g>
		<path d="M256,0C193.565,0,142.77,50.795,142.77,113.231v9.846h29.538v-9.846c0-46.148,37.544-83.692,83.692-83.692
			s83.692,37.544,83.692,83.692v9.846h29.538v-9.846C369.231,50.795,318.436,0,256,0z"/>
	</g>
</g>
<g>
</g>
<g>
</g>
<g>
</g>
<g>
</g>
<g>
</g>
<g>
</g>
<g>
</g>
<g>
</g>
<g>
</g>
<g>
</g>
<g>
</g>
<g>
</g>
<g>
</g>
<g>
</g>
<g>
</g>
</svg>
