<?xml version="1.0"?>
<svg xmlns="http://www.w3.org/2000/svg" xmlns:xlink="http://www.w3.org/1999/xlink" version="1.1" id="Capa_1" x="0px" y="0px" viewBox="0 0 56.48 56.48" style="enable-background:new 0 0 56.48 56.48;" xml:space="preserve" width="512px" height="512px"><g><g>
	<g>
		<path d="M48.935,23.346c-0.222,0-0.403,0.186-0.403,0.418s0.183,0.417,0.403,0.417c0.222,0,0.404-0.188,0.404-0.417    S49.159,23.346,48.935,23.346z M49.027,24.057l-0.164-0.227v0.226h-0.139v-0.583h0.188c0.142,0,0.222,0.064,0.222,0.181    c0,0.081-0.045,0.141-0.127,0.163l0.19,0.24H49.027z" data-original="#000000" class="active-path" data-old_color="#7B2727" fill="#ADADAD"/>
	</g>
</g><g>
	<g>
		<path d="M48.889,23.581h-0.025v0.152h0.023c0.069-0.001,0.106-0.025,0.106-0.077C48.993,23.606,48.958,23.581,48.889,23.581z" data-original="#000000" class="active-path" data-old_color="#7B2727" fill="#ADADAD"/>
	</g>
</g><g>
	<g>
		<path d="M55.026,9.939H1.454C0.65,9.939,0,10.59,0,11.393v33.694c0,0.803,0.65,1.455,1.454,1.455h53.572    c0.804,0,1.454-0.651,1.454-1.454V11.393C56.48,10.59,55.83,9.939,55.026,9.939z M48.941,23.255c0.274,0,0.502,0.231,0.502,0.509    c0,0.28-0.228,0.509-0.502,0.509c-0.283,0-0.511-0.227-0.511-0.509C48.43,23.481,48.655,23.255,48.941,23.255z M44.088,23.387    h1.922c1.497,0,2.353,0.718,2.353,1.962c0,1.018-0.539,1.685-1.515,1.884l2.093,2.799h-1.595l-1.793-2.67h-0.168v2.67H44.09    h-0.002V23.387z M39.555,23.387h3.674v1.126H40.85v1.475h2.293v1.125H40.85v1.794h2.379v1.125h-3.674V23.387z M33.999,23.385    l1.771,4.463l1.795-4.463h1.403L36.097,30.2h-0.694l-2.82-6.814H33.999z M26.196,25.357c0.535-1.269,1.793-2.159,3.256-2.159    c1.953,0,3.535,1.582,3.535,3.533c0,0.245-0.024,0.484-0.072,0.714c-0.01,0.051-0.026,0.102-0.038,0.154    c-0.017,0.061-0.029,0.123-0.05,0.184c-0.444,1.438-1.789,2.483-3.375,2.483c-1.951,0-3.533-1.582-3.533-3.533    C25.919,26.245,26.016,25.781,26.196,25.357z M23.902,23.239c0.557,0,1.026,0.119,1.594,0.408v1.524    c-0.537-0.527-1.006-0.748-1.625-0.748c-1.215,0-2.17,1.007-2.17,2.282c0,1.345,0.925,2.292,2.23,2.292    c0.587,0,1.046-0.21,1.564-0.729v1.524c-0.588,0.28-1.066,0.388-1.625,0.388c-1.973,0-3.506-1.514-3.506-3.466    C20.364,24.783,21.938,23.237,23.902,23.239z M11.779,29.265c-0.639,0.53-1.365,0.768-2.369,0.768H7.517v-6.645h1.9    c2.101,0,3.566,1.366,3.566,3.327C12.983,27.692,12.536,28.635,11.779,29.265z M14.876,30.031h-1.295v-6.645h1.295V30.031z     M17.664,30.193c-0.985,0-1.701-0.389-2.299-1.266l0.838-0.807c0.297,0.577,0.797,0.887,1.414,0.887    c0.578,0,1.006-0.4,1.006-0.938c0-0.279-0.129-0.519-0.389-0.688c-0.13-0.08-0.388-0.199-0.896-0.378    c-1.217-0.438-1.633-0.907-1.633-1.822c0-1.087,0.894-1.903,2.07-1.903c0.728,0,1.394,0.249,1.953,0.736l-0.678,0.889    c-0.338-0.379-0.658-0.539-1.045-0.539c-0.559,0-0.967,0.318-0.967,0.737c0,0.357,0.229,0.549,1.008,0.836    c1.472,0.538,1.91,1.016,1.91,2.071C19.956,29.296,19.011,30.19,17.664,30.193z M55.465,45.533H20.196    C43.01,41.599,55.465,32.81,55.465,32.81V45.533z" data-original="#000000" class="active-path" data-old_color="#7B2727" fill="#ADADAD"/>
	</g>
</g><g>
	<g>
		<path d="M10.93,25.051c-0.427-0.387-0.935-0.538-1.771-0.538H8.811v4.394h0.348c0.835,0,1.365-0.161,1.771-0.528    c0.449-0.399,0.719-1.036,0.719-1.674C11.649,26.068,11.379,25.45,10.93,25.051z" data-original="#000000" class="active-path" data-old_color="#7B2727" fill="#ADADAD"/>
	</g>
</g><g>
	<g>
		<path d="M45.782,24.432h-0.397v2.012h0.377c0.828,0,1.266-0.359,1.266-1.028C47.028,24.771,46.59,24.432,45.782,24.432z" data-original="#000000" class="active-path" data-old_color="#7B2727" fill="#ADADAD"/>
	</g>
</g></g> </svg>
