<?xml version="1.0"?>
<svg xmlns="http://www.w3.org/2000/svg" xmlns:xlink="http://www.w3.org/1999/xlink" version="1.1" id="Capa_1" x="0px" y="0px" width="512px" height="512px" viewBox="0 0 358.69 358.69" style="enable-background:new 0 0 358.69 358.69;" xml:space="preserve"><g><g>
	<g>
		<g>
			<path d="M0,69.547v219.595h358.69V69.547H0z M212.594,230.848c-12.814,0-24.554-4.6-33.711-12.225     c-9.037,7.428-20.596,11.877-33.203,11.877c-28.949,0-52.389-23.443-52.389-52.389c0-28.932,23.44-52.386,52.389-52.386     c12.562,0,24.13,4.443,33.144,11.835c9.154-7.662,20.933-12.268,33.771-12.268c29.1,0,52.801,23.68,52.801,52.782     S241.705,230.848,212.594,230.848z" data-original="#000000" class="active-path" data-old_color="#7B7272" fill="#ADADAD"/>
		</g>
		<g>
			<path d="M212.594,136.612c-9.764,0-18.723,3.413-25.809,9.076c7.038,8.917,11.289,20.17,11.289,32.417     c0,12.234-4.228,23.463-11.253,32.356c7.098,5.645,16.033,9.062,25.772,9.062c22.872,0,41.47-18.604,41.47-41.454     C254.063,155.197,235.466,136.612,212.594,136.612z" data-original="#000000" class="active-path" data-old_color="#7B7272" fill="#ADADAD"/>
		</g>
	</g>
</g></g> </svg>
